<?xml version="1.0" encoding="utf-8" standalone="no"?>
<!DOCTYPE svg PUBLIC "-//W3C//DTD SVG 1.1//EN"
  "http://www.w3.org/Graphics/SVG/1.1/DTD/svg11.dtd">
<svg xmlns:xlink="http://www.w3.org/1999/xlink" width="557.003451pt" height="149.321358pt" viewBox="0 0 557.003451 149.321358" xmlns="http://www.w3.org/2000/svg" version="1.1">
 <metadata>
  <rdf:RDF xmlns:dc="http://purl.org/dc/elements/1.1/" xmlns:cc="http://creativecommons.org/ns#" xmlns:rdf="http://www.w3.org/1999/02/22-rdf-syntax-ns#">
   <cc:Work>
    <dc:type rdf:resource="http://purl.org/dc/dcmitype/StillImage"/>
    <dc:date>2026-07-05T01:50:42.200213</dc:date>
    <dc:format>image/svg+xml</dc:format>
    <dc:creator>
     <cc:Agent>
      <dc:title>Matplotlib v3.11.0, https://matplotlib.org/</dc:title>
     </cc:Agent>
    </dc:creator>
   </cc:Work>
  </rdf:RDF>
 </metadata>
 <defs>
  <style type="text/css">*{stroke-linejoin: round; stroke-linecap: butt}</style>
 </defs>
 <g id="figure_1">
  <g id="patch_1">
   <path d="M 0 149.321358 
L 557.003451 149.321358 
L 557.003451 0 
L 0 0 
z
" style="fill: #ffffff"/>
  </g>
  <g id="axes_1">
   <g id="patch_2">
    <path d="M 21.478235 113.564887 
L 71.698235 113.564887 
Q 74.652353 113.564887 74.652353 110.61077 
L 74.652353 60.39077 
Q 74.652353 57.436652 71.698235 57.436652 
L 21.478235 57.436652 
Q 18.524118 57.436652 18.524118 60.39077 
L 18.524118 110.61077 
Q 18.524118 113.564887 21.478235 113.564887 
z
" clip-path="url(#p21eb0b1d81)" style="fill: #e8eef7; stroke: #333333; stroke-width: 1.3; stroke-linejoin: miter"/>
   </g>
   <g id="patch_3">
    <path d="M 100.254706 113.564887 
L 150.474706 113.564887 
Q 153.428824 113.564887 153.428824 110.61077 
L 153.428824 60.39077 
Q 153.428824 57.436652 150.474706 57.436652 
L 100.254706 57.436652 
Q 97.300588 57.436652 97.300588 60.39077 
L 97.300588 110.61077 
Q 97.300588 113.564887 100.254706 113.564887 
z
" clip-path="url(#p21eb0b1d81)" style="fill: #e8eef7; stroke: #333333; stroke-width: 1.3; stroke-linejoin: miter"/>
   </g>
   <g id="text_1">
    <!-- $\bar{Q}_1$ -->
    <g transform="translate(38.968235 89.699364)">
     <text>
      <tspan x="9.095703" y="-3.0625" style="font-size: 12px; font-family: 'DejaVu Sans'">̄</tspan>
      <tspan x="0" y="-0.734375" style="font-style: oblique; font-size: 12px; font-family: 'DejaVu Sans'">Q</tspan>
      <tspan x="9.560156" y="1.2325" style="font-size: 8.4px; font-family: 'DejaVu Sans'">1</tspan>
     </text>
    </g>
   </g>
   <g id="text_2">
    <!-- $\bar{Q}_2$ -->
    <g transform="translate(117.744706 89.699364)">
     <text>
      <tspan x="9.095703" y="-3.0625" style="font-size: 12px; font-family: 'DejaVu Sans'">̄</tspan>
      <tspan x="0" y="-0.734375" style="font-style: oblique; font-size: 12px; font-family: 'DejaVu Sans'">Q</tspan>
      <tspan x="9.560156" y="1.2325" style="font-size: 8.4px; font-family: 'DejaVu Sans'">2</tspan>
     </text>
    </g>
   </g>
   <g id="text_3">
    <text style="font-size: 10px; font-family: 'DejaVu Sans', 'Bitstream Vera Sans', 'Computer Modern Sans Serif', 'Lucida Grande', 'Verdana', 'Geneva', 'Lucid', 'Arial', 'Helvetica', 'Avant Garde', sans-serif; text-anchor: middle" x="85.976471" y="27.803711" transform="rotate(-0 85.976471 27.803711)">(a) two encoded patches</text>
   </g>
  </g>
  <g id="axes_2">
   <g id="patch_4">
    <path d="M 262.731176 109.626064 
L 287.348824 109.626064 
L 287.348824 61.375476 
L 262.731176 61.375476 
z
" clip-path="url(#pd97ba11804)" style="fill: url(#h32d04bbddf); stroke: #b02a2a; stroke-width: 1.3; stroke-linejoin: miter"/>
   </g>
   <g id="patch_5">
    <path d="M 210.541765 113.564887 
L 260.761765 113.564887 
Q 263.715882 113.564887 263.715882 110.61077 
L 263.715882 60.39077 
Q 263.715882 57.436652 260.761765 57.436652 
L 210.541765 57.436652 
Q 207.587647 57.436652 207.587647 60.39077 
L 207.587647 110.61077 
Q 207.587647 113.564887 210.541765 113.564887 
z
" clip-path="url(#pd97ba11804)" style="fill: #e8eef7; stroke: #333333; stroke-width: 1.3; stroke-linejoin: miter"/>
   </g>
   <g id="patch_6">
    <path d="M 289.318235 113.564887 
L 339.538235 113.564887 
Q 342.492353 113.564887 342.492353 110.61077 
L 342.492353 60.39077 
Q 342.492353 57.436652 339.538235 57.436652 
L 289.318235 57.436652 
Q 286.364118 57.436652 286.364118 60.39077 
L 286.364118 110.61077 
Q 286.364118 113.564887 289.318235 113.564887 
z
" clip-path="url(#pd97ba11804)" style="fill: #e8eef7; stroke: #333333; stroke-width: 1.3; stroke-linejoin: miter"/>
   </g>
   <g id="text_4">
    <!-- $\bar{Q}_1$ -->
    <g transform="translate(228.031765 89.699364)">
     <text>
      <tspan x="9.095703" y="-3.0625" style="font-size: 12px; font-family: 'DejaVu Sans'">̄</tspan>
      <tspan x="0" y="-0.734375" style="font-style: oblique; font-size: 12px; font-family: 'DejaVu Sans'">Q</tspan>
      <tspan x="9.560156" y="1.2325" style="font-size: 8.4px; font-family: 'DejaVu Sans'">1</tspan>
     </text>
    </g>
   </g>
   <g id="text_5">
    <!-- $\bar{Q}_2$ -->
    <g transform="translate(306.808235 89.699364)">
     <text>
      <tspan x="9.095703" y="-3.0625" style="font-size: 12px; font-family: 'DejaVu Sans'">̄</tspan>
      <tspan x="0" y="-0.734375" style="font-style: oblique; font-size: 12px; font-family: 'DejaVu Sans'">Q</tspan>
      <tspan x="9.560156" y="1.2325" style="font-size: 8.4px; font-family: 'DejaVu Sans'">2</tspan>
     </text>
    </g>
   </g>
   <g id="text_6">
    <!-- joint outcome $=\bar{Z}_1\bar{Z}_2$ -->
    <g style="fill: #b02a2a" transform="translate(226.53 126.366064)">
     <text>
      <tspan x="0" y="-0.671875" style="font-size: 9px; font-family: 'DejaVu Sans'; fill: #b02a2a">j</tspan>
      <tspan x="2.500488" y="-0.671875" style="font-size: 9px; font-family: 'DejaVu Sans'; fill: #b02a2a">o</tspan>
      <tspan x="8.006836" y="-0.671875" style="font-size: 9px; font-family: 'DejaVu Sans'; fill: #b02a2a">i</tspan>
      <tspan x="10.507324" y="-0.671875" style="font-size: 9px; font-family: 'DejaVu Sans'; fill: #b02a2a">n</tspan>
      <tspan x="16.211426" y="-0.671875" style="font-size: 9px; font-family: 'DejaVu Sans'; fill: #b02a2a">t</tspan>
      <tspan x="19.740234" y="-0.671875" style="font-size: 9px; font-family: 'DejaVu Sans'; fill: #b02a2a"> </tspan>
      <tspan x="22.601074" y="-0.671875" style="font-size: 9px; font-family: 'DejaVu Sans'; fill: #b02a2a">o</tspan>
      <tspan x="28.107422" y="-0.671875" style="font-size: 9px; font-family: 'DejaVu Sans'; fill: #b02a2a">u</tspan>
      <tspan x="33.811523" y="-0.671875" style="font-size: 9px; font-family: 'DejaVu Sans'; fill: #b02a2a">t</tspan>
      <tspan x="37.340332" y="-0.671875" style="font-size: 9px; font-family: 'DejaVu Sans'; fill: #b02a2a">c</tspan>
      <tspan x="42.288574" y="-0.671875" style="font-size: 9px; font-family: 'DejaVu Sans'; fill: #b02a2a">o</tspan>
      <tspan x="47.794922" y="-0.671875" style="font-size: 9px; font-family: 'DejaVu Sans'; fill: #b02a2a">m</tspan>
      <tspan x="56.562012" y="-0.671875" style="font-size: 9px; font-family: 'DejaVu Sans'; fill: #b02a2a">e</tspan>
      <tspan x="62.099121" y="-0.671875" style="font-size: 9px; font-family: 'DejaVu Sans'; fill: #b02a2a"> </tspan>
      <tspan x="66.713379" y="-0.671875" style="font-size: 9px; font-family: 'DejaVu Sans'; fill: #b02a2a">=</tspan>
      <tspan x="82.096069" y="-2.296875" style="font-size: 9px; font-family: 'DejaVu Sans'; fill: #b02a2a">̄</tspan>
      <tspan x="92.602075" y="-2.296875" style="font-size: 9px; font-family: 'DejaVu Sans'; fill: #b02a2a">̄</tspan>
      <tspan x="76.007812" y="-0.671875" style="font-style: oblique; font-size: 9px; font-family: 'DejaVu Sans'; fill: #b02a2a">Z</tspan>
      <tspan x="86.513818" y="-0.671875" style="font-style: oblique; font-size: 9px; font-family: 'DejaVu Sans'; fill: #b02a2a">Z</tspan>
      <tspan x="82.259473" y="0.678121" style="font-size: 6.3px; font-family: 'DejaVu Sans'; fill: #b02a2a">1</tspan>
      <tspan x="92.765479" y="0.678121" style="font-size: 6.3px; font-family: 'DejaVu Sans'; fill: #b02a2a">2</tspan>
     </text>
    </g>
   </g>
   <g id="text_7">
    <text style="font-size: 10px; font-family: 'DejaVu Sans', 'Bitstream Vera Sans', 'Computer Modern Sans Serif', 'Lucida Grande', 'Verdana', 'Geneva', 'Lucid', 'Arial', 'Helvetica', 'Avant Garde', sans-serif" transform="translate(209.925156 15.799414)">(b) merge: measure seam</text>
    <!-- stabilizers for $d$ rounds -->
    <g transform="translate(217.74 27.803711)">
     <text>
      <tspan x="0" y="-0.40625" style="font-size: 10px; font-family: 'DejaVu Sans'">s</tspan>
      <tspan x="5.209961" y="-0.40625" style="font-size: 10px; font-family: 'DejaVu Sans'">t</tspan>
      <tspan x="9.130859" y="-0.40625" style="font-size: 10px; font-family: 'DejaVu Sans'">a</tspan>
      <tspan x="15.258789" y="-0.40625" style="font-size: 10px; font-family: 'DejaVu Sans'">b</tspan>
      <tspan x="21.606445" y="-0.40625" style="font-size: 10px; font-family: 'DejaVu Sans'">i</tspan>
      <tspan x="24.384766" y="-0.40625" style="font-size: 10px; font-family: 'DejaVu Sans'">l</tspan>
      <tspan x="27.163086" y="-0.40625" style="font-size: 10px; font-family: 'DejaVu Sans'">i</tspan>
      <tspan x="29.941406" y="-0.40625" style="font-size: 10px; font-family: 'DejaVu Sans'">s</tspan>
      <tspan x="35.151367" y="-0.40625" style="font-size: 10px; font-family: 'DejaVu Sans'">e</tspan>
      <tspan x="41.303711" y="-0.40625" style="font-size: 10px; font-family: 'DejaVu Sans'">r</tspan>
      <tspan x="45.415039" y="-0.40625" style="font-size: 10px; font-family: 'DejaVu Sans'">s</tspan>
      <tspan x="50.625" y="-0.40625" style="font-size: 10px; font-family: 'DejaVu Sans'"> </tspan>
      <tspan x="53.803711" y="-0.40625" style="font-size: 10px; font-family: 'DejaVu Sans'">f</tspan>
      <tspan x="57.324219" y="-0.40625" style="font-size: 10px; font-family: 'DejaVu Sans'">o</tspan>
      <tspan x="63.442383" y="-0.40625" style="font-size: 10px; font-family: 'DejaVu Sans'">r</tspan>
      <tspan x="67.553711" y="-0.40625" style="font-size: 10px; font-family: 'DejaVu Sans'"> </tspan>
      <tspan x="77.080078" y="-0.40625" style="font-size: 10px; font-family: 'DejaVu Sans'"> </tspan>
      <tspan x="80.258789" y="-0.40625" style="font-size: 10px; font-family: 'DejaVu Sans'">r</tspan>
      <tspan x="84.370117" y="-0.40625" style="font-size: 10px; font-family: 'DejaVu Sans'">o</tspan>
      <tspan x="90.488281" y="-0.40625" style="font-size: 10px; font-family: 'DejaVu Sans'">u</tspan>
      <tspan x="96.826172" y="-0.40625" style="font-size: 10px; font-family: 'DejaVu Sans'">n</tspan>
      <tspan x="103.164062" y="-0.40625" style="font-size: 10px; font-family: 'DejaVu Sans'">d</tspan>
      <tspan x="109.511719" y="-0.40625" style="font-size: 10px; font-family: 'DejaVu Sans'">s</tspan>
      <tspan x="70.732422" y="-0.40625" style="font-style: oblique; font-size: 10px; font-family: 'DejaVu Sans'">d</tspan>
     </text>
    </g>
   </g>
  </g>
  <g id="axes_3">
   <g id="patch_7">
    <path d="M 399.605294 113.564887 
L 449.825294 113.564887 
Q 452.779412 113.564887 452.779412 110.61077 
L 452.779412 60.39077 
Q 452.779412 57.436652 449.825294 57.436652 
L 399.605294 57.436652 
Q 396.651176 57.436652 396.651176 60.39077 
L 396.651176 110.61077 
Q 396.651176 113.564887 399.605294 113.564887 
z
" clip-path="url(#p4df4e69458)" style="fill: #e8eef7; stroke: #333333; stroke-width: 1.3; stroke-linejoin: miter"/>
   </g>
   <g id="patch_8">
    <path d="M 478.381765 113.564887 
L 528.601765 113.564887 
Q 531.555882 113.564887 531.555882 110.61077 
L 531.555882 60.39077 
Q 531.555882 57.436652 528.601765 57.436652 
L 478.381765 57.436652 
Q 475.427647 57.436652 475.427647 60.39077 
L 475.427647 110.61077 
Q 475.427647 113.564887 478.381765 113.564887 
z
" clip-path="url(#p4df4e69458)" style="fill: #e8eef7; stroke: #333333; stroke-width: 1.3; stroke-linejoin: miter"/>
   </g>
   <g id="text_8">
    <!-- $\bar{Q}_1$ -->
    <g transform="translate(417.095294 89.699364)">
     <text>
      <tspan x="9.095703" y="-3.0625" style="font-size: 12px; font-family: 'DejaVu Sans'">̄</tspan>
      <tspan x="0" y="-0.734375" style="font-style: oblique; font-size: 12px; font-family: 'DejaVu Sans'">Q</tspan>
      <tspan x="9.560156" y="1.2325" style="font-size: 8.4px; font-family: 'DejaVu Sans'">1</tspan>
     </text>
    </g>
   </g>
   <g id="text_9">
    <!-- $\bar{Q}_2$ -->
    <g transform="translate(495.871765 89.699364)">
     <text>
      <tspan x="9.095703" y="-3.0625" style="font-size: 12px; font-family: 'DejaVu Sans'">̄</tspan>
      <tspan x="0" y="-0.734375" style="font-style: oblique; font-size: 12px; font-family: 'DejaVu Sans'">Q</tspan>
      <tspan x="9.560156" y="1.2325" style="font-size: 8.4px; font-family: 'DejaVu Sans'">2</tspan>
     </text>
    </g>
   </g>
   <g id="text_10">
    <text style="font-size: 8.5px; font-family: 'DejaVu Sans', 'Bitstream Vera Sans', 'Computer Modern Sans Serif', 'Lucida Grande', 'Verdana', 'Geneva', 'Lucid', 'Arial', 'Helvetica', 'Avant Garde', sans-serif; text-anchor: middle; fill: #333333" x="464.103529" y="133.259005" transform="rotate(-0 464.103529 133.259005)">Pauli correction conditioned on outcome</text>
   </g>
   <g id="text_11">
    <text style="font-size: 10px; font-family: 'DejaVu Sans', 'Bitstream Vera Sans', 'Computer Modern Sans Serif', 'Lucida Grande', 'Verdana', 'Geneva', 'Lucid', 'Arial', 'Helvetica', 'Avant Garde', sans-serif" transform="translate(403.872279 15.800977)">(c) split: seam released,</text>
    <text style="font-size: 10px; font-family: 'DejaVu Sans', 'Bitstream Vera Sans', 'Computer Modern Sans Serif', 'Lucida Grande', 'Verdana', 'Geneva', 'Lucid', 'Arial', 'Helvetica', 'Avant Garde', sans-serif" transform="translate(418.347279 27.803711)">outcome recorded</text>
   </g>
  </g>
 </g>
 <defs>
  <clipPath id="p21eb0b1d81">
   <rect x="7.2" y="33.803711" width="157.552941" height="108.317647"/>
  </clipPath>
  <clipPath id="pd97ba11804">
   <rect x="196.263529" y="33.803711" width="157.552941" height="108.317647"/>
  </clipPath>
  <clipPath id="p4df4e69458">
   <rect x="385.327059" y="33.803711" width="157.552941" height="108.317647"/>
  </clipPath>
 </defs>
 <defs>
  <pattern id="h32d04bbddf" patternUnits="userSpaceOnUse" x="0" y="0" width="72" height="72">
   <rect x="0" y="0" width="73" height="73" fill="#f6d7d7"/>
   <path d="M -36 36 
L 36 -36 
M -32 40 
L 40 -32 
M -28 44 
L 44 -28 
M -24 48 
L 48 -24 
M -20 52 
L 52 -20 
M -16 56 
L 56 -16 
M -12 60 
L 60 -12 
M -8 64 
L 64 -8 
M -4 68 
L 68 -4 
M 0 72 
L 72 0 
M 4 76 
L 76 4 
M 8 80 
L 80 8 
M 12 84 
L 84 12 
M 16 88 
L 88 16 
M 20 92 
L 92 20 
M 24 96 
L 96 24 
M 28 100 
L 100 28 
M 32 104 
L 104 32 
M 36 108 
L 108 36 
" style="fill: #b02a2a; stroke: #b02a2a; stroke-width: 1.0; stroke-linecap: butt; stroke-linejoin: miter"/>
  </pattern>
 </defs>
</svg>
